<svg width="32" height="32" viewBox="0 0 32 32" fill="none" xmlns="http://www.w3.org/2000/svg" aria-hidden="true" role="img" class="ednoda-icon">
<rect width="32" height="32" fill="#332FD0"/>
<path d="M14.2398 25C13.0821 25 12.0323 24.7686 11.0905 24.3057C10.1486 23.8257 9.39317 23.1914 8.82413 22.4029C8.27471 21.5971 8 20.6886 8 19.6771C8 18.9229 8.18641 18.22 8.55923 17.5686C8.95167 16.9 9.47166 16.3257 10.1192 15.8457C9.49128 15.3829 8.99091 14.8343 8.6181 14.2C8.2649 13.5657 8.0883 12.8971 8.0883 12.1943C8.0883 11.2 8.36301 10.3171 8.91243 9.54572C9.46184 8.75714 10.1977 8.14 11.1199 7.69429C12.0421 7.23143 13.0625 7 14.181 7H24V10.6H14.9462C14.5734 10.6 14.23 10.6771 13.9161 10.8314C13.6021 10.9857 13.347 11.1914 13.1508 11.4486C12.9742 11.7057 12.8859 12.0057 12.8859 12.3486C12.8859 12.6743 12.9742 12.9743 13.1508 13.2486C13.347 13.5057 13.6021 13.7114 13.9161 13.8657C14.23 14.0029 14.5734 14.0714 14.9462 14.0714H23.1708V15.8714V17.6714H15.0934C14.6813 17.6714 14.3085 17.7571 13.9749 17.9286C13.6413 18.1 13.3764 18.3229 13.1802 18.5971C12.984 18.8714 12.8859 19.1886 12.8859 19.5486C12.8859 19.8914 12.984 20.2086 13.1802 20.5C13.3764 20.7743 13.6413 20.9886 13.9749 21.1429C14.3085 21.2971 14.6813 21.3743 15.0934 21.3743H24V25H14.2398Z" fill="white"/>
</svg>



